<svg width="34" height="34" viewBox="0 0 34 34" fill="none" xmlns="http://www.w3.org/2000/svg">
<path d="M31 17C31 15.8954 30.1046 15 29 15C27.8954 15 27 15.8954 27 17H31ZM29 32V34C30.1046 34 31 33.1046 31 32H29ZM5 32H3C3 33.1046 3.89543 34 5 34V32ZM7 17C7 15.8954 6.10457 15 5 15C3.89543 15 3 15.8954 3 17H7ZM2 9.5V7.5C0.895431 7.5 0 8.39543 0 9.5H2ZM32 9.5H34C34 8.39543 33.1046 7.5 32 7.5V9.5ZM32 17V19C33.1046 19 34 18.1046 34 17H32ZM2 17H0C0 18.1046 0.895431 19 2 19L2 17ZM17 9.50001L17 11.5L17 11.5L17 9.50001ZM10.25 9.50001L10.25 7.50001L10.25 9.50001ZM6.49999 5.75001L4.49999 5.75001L6.49999 5.75001ZM10.25 2.00001L10.25 7.32085e-06L10.25 2.00001ZM23.75 9.5L23.75 7.5L23.75 7.5L23.75 9.5ZM23.75 2V4V2ZM27 17V32H31V17H27ZM29 30H5V34H29V30ZM7 32V17H3V32H7ZM2 11.5H32V7.5H2V11.5ZM30 9.5V17H34V9.5H30ZM32 15H2V19H32V15ZM4 17V9.5H0V17H4ZM17 7.50001H10.25V11.5H17V7.50001ZM10.25 7.50001C9.78586 7.50001 9.34074 7.31563 9.01255 6.98744L6.18412 9.81587C7.26246 10.8942 8.72499 11.5 10.25 11.5L10.25 7.50001ZM9.01255 6.98744C8.68436 6.65926 8.49999 6.21414 8.49999 5.75001L4.49999 5.75001C4.49999 7.275 5.10579 8.73754 6.18412 9.81587L9.01255 6.98744ZM8.49999 5.75001C8.49999 5.28588 8.68436 4.84076 9.01255 4.51257L6.18412 1.68414C5.10579 2.76248 4.49999 4.22501 4.49999 5.75001L8.49999 5.75001ZM9.01255 4.51257C9.34074 4.18438 9.78586 4.00001 10.25 4.00001L10.25 7.32085e-06C8.72499 7.32085e-06 7.26246 0.605809 6.18412 1.68414L9.01255 4.51257ZM10.25 4.00001C11.7628 4.00001 12.9271 5.05169 13.8413 6.71384C14.2752 7.50282 14.5801 8.31037 14.7769 8.93191C14.8742 9.23909 14.9423 9.492 14.985 9.66281C15.0063 9.74801 15.0211 9.81215 15.0299 9.85171C15.0344 9.87146 15.0373 9.88503 15.0387 9.89194C15.0395 9.8954 15.0398 9.89719 15.0398 9.89726C15.0398 9.8973 15.0398 9.8969 15.0396 9.89607C15.0395 9.89565 15.0394 9.89512 15.0393 9.89448C15.0392 9.89417 15.0391 9.8936 15.0391 9.89344C15.0389 9.89286 15.0388 9.89224 17 9.50001C18.9611 9.10777 18.961 9.1071 18.9609 9.1064C18.9608 9.10612 18.9607 9.10539 18.9606 9.10484C18.9603 9.10375 18.9601 9.10254 18.9598 9.10122C18.9593 9.09856 18.9587 9.09545 18.9579 9.09188C18.9564 9.08474 18.9546 9.07577 18.9523 9.06504C18.9478 9.04358 18.9416 9.01502 18.9338 8.97985C18.9181 8.90954 18.8955 8.81255 18.8656 8.69267C18.8057 8.45332 18.7156 8.1203 18.5903 7.72435C18.3418 6.93964 17.9435 5.8722 17.3462 4.78617C16.1978 2.69832 13.9872 7.32085e-06 10.25 7.32085e-06V4.00001ZM17 11.5L23.75 11.5L23.75 7.5L17 7.50001L17 11.5ZM23.75 11.5C25.275 11.5 26.7375 10.8942 27.8159 9.81586L24.9874 6.98744C24.6592 7.31563 24.2141 7.5 23.75 7.5L23.75 11.5ZM27.8159 9.81586C28.8942 8.73753 29.5 7.275 29.5 5.75H25.5C25.5 6.21413 25.3156 6.65925 24.9874 6.98744L27.8159 9.81586ZM29.5 5.75C29.5 4.225 28.8942 2.76247 27.8159 1.68414L24.9874 4.51256C25.3156 4.84075 25.5 5.28587 25.5 5.75H29.5ZM27.8159 1.68414C26.7375 0.605802 25.275 0 23.75 0V4C24.2141 4 24.6592 4.18437 24.9874 4.51256L27.8159 1.68414ZM23.75 0C20.0128 0 17.8021 2.69831 16.6538 4.78616C16.0565 5.87219 15.6582 6.93964 15.4097 7.72434C15.2843 8.1203 15.1942 8.45332 15.1344 8.69267C15.1044 8.81255 15.0819 8.90954 15.0662 8.97985C15.0583 9.01502 15.0522 9.04357 15.0477 9.06504C15.0454 9.07577 15.0435 9.08473 15.0421 9.09188C15.0413 9.09545 15.0407 9.09856 15.0401 9.10121C15.0399 9.10254 15.0396 9.10375 15.0394 9.10484C15.0393 9.10539 15.0392 9.10612 15.0391 9.10639C15.039 9.1071 15.0388 9.10777 17 9.50001C18.9611 9.89224 18.961 9.89286 18.9609 9.89345C18.9609 9.89361 18.9608 9.89417 18.9607 9.89449C18.9606 9.89512 18.9605 9.89565 18.9604 9.89607C18.9602 9.8969 18.9601 9.8973 18.9601 9.89727C18.9601 9.8972 18.9605 9.8954 18.9612 9.89195C18.9627 9.88503 18.9656 9.87147 18.97 9.85171C18.9789 9.81215 18.9937 9.74801 19.015 9.66281C19.0577 9.49201 19.1258 9.23909 19.2231 8.93192C19.4199 8.31037 19.7247 7.50282 20.1587 6.71384C21.0729 5.05169 22.2372 4 23.75 4V0ZM15.0601 9.48682V16.2368H19.0601V9.48682H15.0601Z" fill="#CFD7BC"/>
</svg>
