<svg width="72" height="100" viewBox="0 0 72 100" fill="none" xmlns="http://www.w3.org/2000/svg">
<path fill-rule="evenodd" clip-rule="evenodd" d="M0 35.8974V64.1026C0 83.4925 15.4172 99.2919 34.6949 99.9769C35.128 99.9922 35.5631 100 36 100C36.4369 100 36.872 99.9922 37.3051 99.9769C56.5828 99.2919 72 83.4925 72 64.1026V35.8974C72 16.5075 56.5828 0.708125 37.3051 0.0231497C36.872 0.00776013 36.4369 0 36 0C35.5631 0 35.128 0.00776013 34.6949 0.0231497C15.4172 0.708125 0 16.5075 0 35.8974ZM36 1.3245C18.3185 1.3245 3.98486 16.8033 3.98486 35.8974V64.1026C3.98486 83.1967 18.3185 98.6755 36 98.6755C53.6815 98.6755 68.0151 83.1967 68.0151 64.1026V35.8974C68.0151 16.8033 53.6815 1.3245 36 1.3245Z" fill="#96A471"/>
<path d="M20.7847 19.8675V53.6424H17.6548V19.8675H20.7847ZM33.7859 52.1466V53.6424H20.6402V52.1466H33.7859ZM17.7992 50.1202V53.6424H13.947V53.1599C13.947 53.1599 14.0433 53.1599 14.2359 53.1599C14.4606 53.1599 14.573 53.1599 14.573 53.1599C15.4077 53.1599 16.1139 52.8704 16.6917 52.2914C17.3017 51.6802 17.6227 50.9565 17.6548 50.1202H17.7992ZM17.7992 23.3898H17.6548C17.6227 22.5534 17.3017 21.8458 16.6917 21.2668C16.1139 20.6556 15.4077 20.35 14.573 20.35C14.573 20.35 14.4606 20.35 14.2359 20.35C14.0433 20.35 13.947 20.35 13.947 20.35V19.8675H17.7992V23.3898ZM20.6402 23.3898V19.8675H24.4925V20.35C24.4604 20.35 24.348 20.35 24.1554 20.35C23.9628 20.35 23.8665 20.35 23.8665 20.35C23.0318 20.35 22.3095 20.6556 21.6996 21.2668C21.1218 21.8458 20.8168 22.5534 20.7847 23.3898H20.6402Z" fill="#96A471"/>
<path fill-rule="evenodd" clip-rule="evenodd" d="M61.1567 77.8833C62.2212 77.8833 63.4309 77.7064 64.7857 77.3526V76.8701C64.3986 76.9344 64.0115 76.9666 63.6244 76.9666C61.7534 76.9666 59.8663 76.4519 57.9631 75.4226C57.0276 74.9401 55.9469 74.1842 54.7211 73.1548C53.5275 72.1577 52.1404 70.871 50.5598 69.2949C48.9791 67.7187 45.3984 63.8587 39.8177 57.7149C38.4306 56.1709 37.1886 54.8199 36.0919 53.6619H36.1403C38.4306 53.6619 40.3661 52.7291 41.9468 50.8635C43.5274 48.9656 44.3178 46.714 44.3178 44.1085C44.3178 41.4708 43.4468 39.3639 41.7048 37.7878C39.9951 36.1795 37.7209 35.3753 34.8822 35.3753H21.8175V35.8578H22.4466C23.2853 35.8578 23.995 36.1634 24.5756 36.7745C25.1885 37.3535 25.5111 38.0612 25.5434 38.8975V53.469H28.6886V36.871H34.6886C36.5919 36.9032 38.0596 37.6269 39.0919 39.0423C40.1564 40.4576 40.6887 42.3393 40.6887 44.6875C40.6887 47.5181 39.7371 49.5446 37.8338 50.767C37.3499 51.1208 36.7532 51.4103 36.0435 51.6355C35.3338 51.8285 34.6564 51.9732 34.0112 52.0697C33.3983 52.134 32.1563 52.1662 30.2853 52.1662V52.6487C30.8983 52.713 31.7692 53.3725 32.8983 54.6269C34.0273 55.8814 36.3177 58.4226 39.7693 62.2504C43.221 66.0461 45.5436 68.6355 46.7371 70.0186C47.963 71.4018 49.3178 72.6884 50.8017 73.8786C51.6082 74.5863 52.4146 75.1813 53.2211 75.6638C54.0275 76.1463 54.8824 76.5645 55.7856 76.9183C56.7211 77.3043 57.5921 77.5616 58.3986 77.6903C59.205 77.819 60.1244 77.8833 61.1567 77.8833ZM28.6886 54.1927H25.5434V65.6761C25.5111 66.5125 25.1885 67.2201 24.5756 67.7991C23.9627 68.3781 23.253 68.6676 22.4466 68.6676H21.8175V69.1501H32.4144L32.366 68.6676H31.7854C30.9144 68.6676 30.1724 68.362 29.5595 67.7509C28.9789 67.1397 28.6886 66.432 28.6886 65.6279V54.1927Z" fill="#96A471"/>
</svg>
