<svg width="25" height="25" viewBox="0 0 25 25" fill="none" xmlns="http://www.w3.org/2000/svg">
<g clip-path="url(#clip0_136_7)">
<path d="M11.8359 14.2822C12.0996 14.0186 12.5537 14.0186 12.8174 14.2822L16.5772 18.042C17.2705 18.7353 18.1934 19.1162 19.1699 19.1162H19.9072L15.166 23.8574C13.6865 25.2978 11.2842 25.2978 9.80469 23.8574L5.04395 19.1016H5.49805C6.47461 19.1016 7.39746 18.7207 8.09082 18.0273L11.8359 14.2822ZM12.8174 10.6885C12.5049 10.957 12.1045 10.9619 11.8359 10.6885L8.09082 6.94336C7.39746 6.20605 6.47461 5.86914 5.49805 5.86914H5.04395L9.79981 1.11328C11.2842 -0.371094 13.6865 -0.371094 15.166 1.11328L19.9121 5.85449H19.1699C18.1934 5.85449 17.2705 6.23535 16.5772 6.92871L12.8174 10.6885ZM5.49805 6.96777C6.17188 6.96777 6.79199 7.24121 7.30957 7.71973L11.0547 11.4648C11.4063 11.7725 11.8652 11.9922 12.3291 11.9922C12.7881 11.9922 13.2471 11.7725 13.5986 11.4648L17.3584 7.70508C17.8369 7.23144 18.4961 6.95801 19.1699 6.95801H21.0107L23.8574 9.80469C25.3369 11.2842 25.3369 13.6865 23.8574 15.166L21.0107 18.0127H19.1699C18.4961 18.0127 17.8369 17.7393 17.3584 17.2607L13.5986 13.501C12.9199 12.8223 11.7334 12.8223 11.0547 13.5059L7.30957 17.2461C6.79199 17.7246 6.17188 17.998 5.49805 17.998H3.94531L1.11328 15.166C-0.371094 13.6865 -0.371094 11.2842 1.11328 9.80469L3.94531 6.96777H5.49805Z" fill="#4C5437"/>
</g>
<defs>
<clipPath id="clip0_136_7">
<rect width="25" height="25" fill="white"/>
</clipPath>
</defs>
</svg>
